<svg width="175" height="85" viewBox="0 0 175 85" fill="none" xmlns="http://www.w3.org/2000/svg">
<path fill-rule="evenodd" clip-rule="evenodd" d="M37.4424 16.2535L59.5304 28.2896V52.6746L46.3161 59.5251L61.7632 67.7461L74.9574 60.5829V20.2663L37.4749 0" fill="#E3D2C6"/>
<path fill-rule="evenodd" clip-rule="evenodd" d="M37.5175 16.2535L15.4295 28.2896V52.6746L28.6438 59.5251L13.1942 67.7461L0 60.5829V20.2663L37.485 0" fill="#E3D2C6"/>
<path fill-rule="evenodd" clip-rule="evenodd" d="M22.2406 72.5684L37.5001 64.8142L60.2131 76.9009L45.0961 85.0001L22.2406 72.5684Z" fill="#F39DAA"/>
<path d="M96.1014 56.8C96.1014 59.168 95.3014 61.024 93.7654 62.368C92.3254 63.648 90.4054 64.288 88.0054 64.288C85.5734 64.288 83.6214 63.648 82.1814 62.368C80.6454 61.024 79.8774 59.168 79.8774 56.8V42.24H82.1174V57.12C82.1174 58.784 82.6934 60.032 83.8774 60.896C84.9014 61.664 86.2774 62.048 88.0054 62.048C90.6614 62.048 92.4534 61.152 93.3814 59.36C93.7014 58.752 93.8614 58.016 93.8614 57.12V42.24H96.1014V56.8ZM103.94 56H111.844L107.908 45.984L103.94 56ZM117.444 64H115.012L112.676 58.08H103.108L100.772 64H98.3399L107.908 40.736L117.444 64ZM122.41 53.248H127.466C128.714 53.248 129.738 52.832 130.57 51.968C131.402 51.104 131.818 50.048 131.818 48.768C131.818 47.488 131.402 46.464 130.634 45.632C129.834 44.8 128.778 44.384 127.466 44.384H122.41V53.248ZM134.058 48.8C134.058 50.72 133.354 52.32 132.01 53.568C130.826 54.688 129.386 55.296 127.69 55.392L134.41 64H131.402L125.002 55.392H122.41V64H120.17V42.24H127.146C129.066 42.24 130.698 42.88 132.01 44.096C133.354 45.344 134.058 46.944 134.058 48.8ZM135.816 44.256V42.176H141.096H143.336H148.616V44.256H143.336V63.936H141.096V44.256H135.816ZM170.838 53.056C170.838 50.624 169.942 48.512 168.214 46.752C166.454 45.024 164.342 44.128 161.878 44.128C159.414 44.128 157.302 45.024 155.542 46.752C153.814 48.512 152.918 50.624 152.918 53.056C152.918 55.552 153.814 57.664 155.542 59.392C157.302 61.152 159.414 62.016 161.878 62.016C164.342 62.016 166.454 61.152 168.214 59.392C169.942 57.664 170.838 55.552 170.838 53.056ZM173.078 53.056C173.078 54.592 172.758 56.064 172.182 57.408C171.606 58.784 170.806 59.968 169.782 60.992C168.758 62.016 167.574 62.816 166.198 63.392C164.854 63.968 163.382 64.288 161.846 64.288C160.31 64.288 158.87 63.968 157.526 63.392C156.182 62.816 154.998 62.016 153.974 60.992C152.95 59.968 152.15 58.784 151.574 57.408C150.998 56.064 150.678 54.592 150.678 53.056C150.678 51.52 150.998 50.08 151.574 48.704C152.15 47.36 152.95 46.176 153.974 45.152C154.998 44.16 156.182 43.36 157.526 42.784C158.87 42.208 160.31 41.92 161.846 41.92C163.382 41.92 164.854 42.208 166.198 42.784C167.574 43.36 168.758 44.16 169.782 45.152C170.806 46.176 171.606 47.36 172.182 48.704C172.758 50.08 173.078 51.52 173.078 53.056Z" fill="#625C5C"/>
<path d="M93.7654 62.368L93.4361 61.9917L93.4332 61.9943L93.7654 62.368ZM82.1814 62.368L82.5136 61.9943L82.5106 61.9917L82.1814 62.368ZM79.8774 42.24V41.74H79.3774V42.24H79.8774ZM82.1174 42.24H82.6174V41.74H82.1174V42.24ZM83.8774 60.896L84.1774 60.496L84.1721 60.4921L83.8774 60.896ZM93.3814 59.36L92.9389 59.1271L92.9374 59.1301L93.3814 59.36ZM93.8614 42.24V41.74H93.3614V42.24H93.8614ZM96.1014 42.24H96.6014V41.74H96.1014V42.24ZM95.6014 56.8C95.6014 59.0436 94.8496 60.755 93.4361 61.9917L94.0947 62.7443C95.7532 61.293 96.6014 59.2924 96.6014 56.8H95.6014ZM93.4332 61.9943C92.1057 63.1743 90.3142 63.788 88.0054 63.788V64.788C90.4966 64.788 92.5451 64.1217 94.0976 62.7417L93.4332 61.9943ZM88.0054 63.788C85.6616 63.788 83.8394 63.1728 82.5136 61.9943L81.8492 62.7417C83.4034 64.1232 85.4851 64.788 88.0054 64.788V63.788ZM82.5106 61.9917C81.101 60.7583 80.3774 59.0494 80.3774 56.8H79.3774C79.3774 59.2866 80.1898 61.2897 81.8521 62.7443L82.5106 61.9917ZM80.3774 56.8V42.24H79.3774V56.8H80.3774ZM79.8774 42.74H82.1174V41.74H79.8774V42.74ZM81.6174 42.24V57.12H82.6174V42.24H81.6174ZM81.6174 57.12C81.6174 58.9166 82.2493 60.3269 83.5827 61.2999L84.1721 60.4921C83.1375 59.7371 82.6174 58.6514 82.6174 57.12H81.6174ZM83.5774 61.296C84.7137 62.1483 86.2067 62.548 88.0054 62.548V61.548C86.3481 61.548 85.089 61.1797 84.1774 60.496L83.5774 61.296ZM88.0054 62.548C90.7793 62.548 92.7838 61.6013 93.8254 59.5899L92.9374 59.1301C92.123 60.7027 90.5435 61.548 88.0054 61.548V62.548ZM93.8239 59.5929C94.1908 58.8957 94.3614 58.075 94.3614 57.12H93.3614C93.3614 57.957 93.212 58.6083 92.9389 59.1271L93.8239 59.5929ZM94.3614 57.12V42.24H93.3614V57.12H94.3614ZM93.8614 42.74H96.1014V41.74H93.8614V42.74ZM95.6014 42.24V56.8H96.6014V42.24H95.6014ZM103.94 56L103.475 55.8158L103.204 56.5H103.94V56ZM111.844 56V56.5H112.578L112.309 55.8171L111.844 56ZM107.908 45.984L108.373 45.8011L107.91 44.6217L107.443 45.7998L107.908 45.984ZM117.444 64V64.5H118.189L117.907 63.8104L117.444 64ZM115.012 64L114.547 64.1835L114.672 64.5H115.012V64ZM112.676 58.08L113.141 57.8965L113.016 57.58H112.676V58.08ZM103.108 58.08V57.58H102.768L102.643 57.8965L103.108 58.08ZM100.772 64V64.5H101.112L101.237 64.1835L100.772 64ZM98.3399 64L97.8775 63.8098L97.5936 64.5H98.3399V64ZM107.908 40.736L108.371 40.5464L107.909 39.4196L107.445 40.5458L107.908 40.736ZM103.94 56.5H111.844V55.5H103.94V56.5ZM112.309 55.8171L108.373 45.8011L107.443 46.1669L111.379 56.1829L112.309 55.8171ZM107.443 45.7998L103.475 55.8158L104.405 56.1842L108.373 46.1682L107.443 45.7998ZM117.444 63.5H115.012V64.5H117.444V63.5ZM115.477 63.8165L113.141 57.8965L112.211 58.2635L114.547 64.1835L115.477 63.8165ZM112.676 57.58H103.108V58.58H112.676V57.58ZM102.643 57.8965L100.307 63.8165L101.237 64.1835L103.573 58.2635L102.643 57.8965ZM100.772 63.5H98.3399V64.5H100.772V63.5ZM98.8023 64.1902L108.37 40.9262L107.445 40.5458L97.8775 63.8098L98.8023 64.1902ZM107.445 40.9256L116.981 64.1896L117.907 63.8104L108.371 40.5464L107.445 40.9256ZM122.41 53.248H121.91V53.748H122.41V53.248ZM130.57 51.968L130.21 51.6212L130.21 51.6212L130.57 51.968ZM130.634 45.632L131.001 45.2928L130.994 45.2854L130.634 45.632ZM122.41 44.384V43.884H121.91V44.384H122.41ZM132.01 53.568L131.67 53.2016L131.666 53.2048L132.01 53.568ZM127.69 55.392L127.662 54.8928L126.708 54.9468L127.296 55.6997L127.69 55.392ZM134.41 64V64.5H135.435L134.804 63.6923L134.41 64ZM131.402 64L131.001 64.2983L131.151 64.5H131.402V64ZM125.002 55.392L125.403 55.0937L125.253 54.892H125.002V55.392ZM122.41 55.392V54.892H121.91V55.392H122.41ZM122.41 64V64.5H122.91V64H122.41ZM120.17 64H119.67V64.5H120.17V64ZM120.17 42.24V41.74H119.67V42.24H120.17ZM132.01 44.096L132.35 43.7296L132.35 43.7293L132.01 44.096ZM122.41 53.748H127.466V52.748H122.41V53.748ZM127.466 53.748C128.841 53.748 129.998 53.283 130.93 52.3148L130.21 51.6212C129.478 52.381 128.587 52.748 127.466 52.748V53.748ZM130.93 52.3148C131.857 51.3523 132.318 50.1697 132.318 48.768H131.318C131.318 49.9263 130.947 50.8557 130.21 51.6212L130.93 52.3148ZM132.318 48.768C132.318 47.3663 131.857 46.2201 131.001 45.2929L130.266 45.9711C130.947 46.7079 131.318 47.6097 131.318 48.768H132.318ZM130.994 45.2854C130.087 44.3416 128.894 43.884 127.466 43.884V44.884C128.662 44.884 129.581 45.2584 130.273 45.9786L130.994 45.2854ZM127.466 43.884H122.41V44.884H127.466V43.884ZM121.91 44.384V53.248H122.91V44.384H121.91ZM133.558 48.8C133.558 50.5834 132.91 52.0498 131.67 53.2016L132.35 53.9344C133.798 52.5902 134.558 50.8566 134.558 48.8H133.558ZM131.666 53.2048C130.572 54.24 129.245 54.8032 127.662 54.8928L127.718 55.8912C129.527 55.7888 131.08 55.136 132.353 53.9312L131.666 53.2048ZM127.296 55.6997L134.016 64.3077L134.804 63.6923L128.084 55.0843L127.296 55.6997ZM134.41 63.5H131.402V64.5H134.41V63.5ZM131.803 63.7017L125.403 55.0937L124.601 55.6903L131.001 64.2983L131.803 63.7017ZM125.002 54.892H122.41V55.892H125.002V54.892ZM121.91 55.392V64H122.91V55.392H121.91ZM122.41 63.5H120.17V64.5H122.41V63.5ZM120.67 64V42.24H119.67V64H120.67ZM120.17 42.74H127.146V41.74H120.17V42.74ZM127.146 42.74C128.945 42.74 130.454 43.3357 131.67 44.4627L132.35 43.7293C130.942 42.4243 129.187 41.74 127.146 41.74V42.74ZM131.67 44.4624C132.912 45.616 133.558 47.0833 133.558 48.8H134.558C134.558 46.8047 133.796 45.072 132.35 43.7296L131.67 44.4624ZM135.816 44.256H135.316V44.756H135.816V44.256ZM135.816 42.176V41.676H135.316V42.176H135.816ZM148.616 42.176H149.116V41.676H148.616V42.176ZM148.616 44.256V44.756H149.116V44.256H148.616ZM143.336 44.256V43.756H142.836V44.256H143.336ZM143.336 63.936V64.436H143.836V63.936H143.336ZM141.096 63.936H140.596V64.436H141.096V63.936ZM141.096 44.256H141.596V43.756H141.096V44.256ZM136.316 44.256V42.176H135.316V44.256H136.316ZM135.816 42.676H141.096V41.676H135.816V42.676ZM141.096 42.676H143.336V41.676H141.096V42.676ZM143.336 42.676H148.616V41.676H143.336V42.676ZM148.116 42.176V44.256H149.116V42.176H148.116ZM148.616 43.756H143.336V44.756H148.616V43.756ZM142.836 44.256V63.936H143.836V44.256H142.836ZM143.336 63.436H141.096V64.436H143.336V63.436ZM141.596 63.936V44.256H140.596V63.936H141.596ZM141.096 43.756H135.816V44.756H141.096V43.756ZM168.214 46.752L168.571 46.4016L168.564 46.3952L168.214 46.752ZM155.542 46.752L155.192 46.3952L155.185 46.4017L155.542 46.752ZM168.214 59.392L167.86 59.0384L167.86 59.0384L168.214 59.392ZM172.182 57.408L171.722 57.211L171.721 57.2149L172.182 57.408ZM169.782 60.992L169.428 60.6384L169.428 60.6384L169.782 60.992ZM166.198 63.392L166.005 62.9308L166.001 62.9324L166.198 63.392ZM157.526 63.392L157.723 62.9324L157.723 62.9324L157.526 63.392ZM153.974 60.992L153.62 61.3456L153.62 61.3456L153.974 60.992ZM151.574 57.408L152.035 57.2149L152.033 57.211L151.574 57.408ZM151.574 48.704L151.114 48.507L151.113 48.5109L151.574 48.704ZM153.974 45.152L153.626 44.7928L153.62 44.7984L153.974 45.152ZM157.526 42.784L157.723 43.2436L157.723 43.2436L157.526 42.784ZM166.198 42.784L166.001 43.2436L166.005 43.2452L166.198 42.784ZM169.782 45.152L170.135 44.7984L170.13 44.7929L169.782 45.152ZM172.182 48.704L172.643 48.5109L172.641 48.507L172.182 48.704ZM171.338 53.056C171.338 50.4873 170.386 48.251 168.571 46.4017L167.857 47.1023C169.497 48.773 170.338 50.7607 170.338 53.056H171.338ZM168.564 46.3952C166.714 44.5788 164.478 43.628 161.878 43.628V44.628C164.206 44.628 166.194 45.4692 167.864 47.1088L168.564 46.3952ZM161.878 43.628C159.278 43.628 157.042 44.5788 155.192 46.3952L155.892 47.1088C157.562 45.4692 159.55 44.628 161.878 44.628V43.628ZM155.185 46.4017C153.369 48.251 152.418 50.4873 152.418 53.056H153.418C153.418 50.7607 154.258 48.773 155.899 47.1023L155.185 46.4017ZM152.418 53.056C152.418 55.6861 153.368 57.9249 155.188 59.7456L155.895 59.0384C154.26 57.4031 153.418 55.4179 153.418 53.056H152.418ZM155.188 59.7456C157.043 61.5999 159.282 62.516 161.878 62.516V61.516C159.546 61.516 157.561 60.7041 155.895 59.0384L155.188 59.7456ZM161.878 62.516C164.474 62.516 166.713 61.5999 168.567 59.7456L167.86 59.0384C166.195 60.7041 164.21 61.516 161.878 61.516V62.516ZM168.567 59.7456C170.388 57.9249 171.338 55.6861 171.338 53.056H170.338C170.338 55.4179 169.496 57.4031 167.86 59.0384L168.567 59.7456ZM172.578 53.056C172.578 54.522 172.273 55.9271 171.722 57.211L172.641 57.605C173.243 56.2009 173.578 54.662 173.578 53.056H172.578ZM171.721 57.2149C171.17 58.5308 170.406 59.6603 169.428 60.6384L170.135 61.3456C171.205 60.2757 172.042 59.0372 172.643 57.6011L171.721 57.2149ZM169.428 60.6384C168.45 61.6165 167.321 62.3799 166.005 62.9308L166.391 63.8532C167.827 63.2521 169.066 62.4155 170.135 61.3456L169.428 60.6384ZM166.001 62.9324C164.717 63.4827 163.312 63.788 161.846 63.788V64.788C163.452 64.788 164.991 64.4533 166.395 63.8516L166.001 62.9324ZM161.846 63.788C160.381 63.788 159.008 63.4833 157.723 62.9324L157.329 63.8516C158.732 64.4527 160.238 64.788 161.846 64.788V63.788ZM157.723 62.9324C156.437 62.3812 155.306 61.617 154.327 60.6384L153.62 61.3456C154.69 62.415 155.927 63.2508 157.329 63.8516L157.723 62.9324ZM154.327 60.6384C153.349 59.6603 152.586 58.5308 152.035 57.2149L151.113 57.6011C151.714 59.0372 152.55 60.2757 153.62 61.3456L154.327 60.6384ZM152.033 57.211C151.483 55.9271 151.178 54.522 151.178 53.056H150.178C150.178 54.662 150.513 56.2009 151.114 57.605L152.033 57.211ZM151.178 53.056C151.178 51.5921 151.482 50.2175 152.035 48.8971L151.113 48.5109C150.513 49.9425 150.178 51.4479 150.178 53.056H151.178ZM152.033 48.901C152.585 47.6148 153.349 46.4841 154.327 45.5056L153.62 44.7984C152.551 45.8679 151.715 47.1052 151.114 48.507L152.033 48.901ZM154.322 45.5111C155.303 44.5604 156.436 43.7949 157.723 43.2436L157.329 42.3244C155.927 42.9251 154.693 43.7596 153.626 44.7929L154.322 45.5111ZM157.723 43.2436C159.001 42.6956 160.374 42.42 161.846 42.42V41.42C160.246 41.42 158.738 41.7204 157.329 42.3244L157.723 43.2436ZM161.846 42.42C163.319 42.42 164.724 42.6961 166.001 43.2436L166.395 42.3244C164.984 41.7199 163.445 41.42 161.846 41.42V42.42ZM166.005 43.2452C167.321 43.7962 168.453 44.5609 169.434 45.5111L170.13 44.7929C169.063 43.7591 167.827 42.9238 166.391 42.3228L166.005 43.2452ZM169.428 45.5056C170.407 46.4841 171.171 47.6148 171.722 48.901L172.641 48.507C172.041 47.1052 171.205 45.8679 170.135 44.7984L169.428 45.5056ZM171.721 48.8971C172.273 50.2175 172.578 51.5921 172.578 53.056H173.578C173.578 51.4479 173.242 49.9425 172.643 48.5109L171.721 48.8971Z" fill="#635C5C"/>
</svg>
