<svg width="175" height="85" viewBox="0 0 175 85" fill="none" xmlns="http://www.w3.org/2000/svg">
<path fill-rule="evenodd" clip-rule="evenodd" d="M37.4424 16.2535L59.5304 28.2896V52.6746L46.3161 59.5251L61.7632 67.7461L74.9574 60.5829V20.2663L37.4749 0" fill="#E3D2C6"/>
<path fill-rule="evenodd" clip-rule="evenodd" d="M37.5175 16.2535L15.4295 28.2896V52.6746L28.6438 59.5251L13.1942 67.7461L0 60.5829V20.2663L37.485 0" fill="#E3D2C6"/>
<path fill-rule="evenodd" clip-rule="evenodd" d="M22.2406 72.5684L37.5001 64.8142L60.2131 76.9009L45.0961 85.0001L22.2406 72.5684Z" fill="#5FBFB8"/>
<path d="M96.4884 56.8C96.4884 59.168 95.6884 61.024 94.1524 62.368C92.7124 63.648 90.7924 64.288 88.3924 64.288C85.9604 64.288 84.0084 63.648 82.5684 62.368C81.0324 61.024 80.2644 59.168 80.2644 56.8V42.24H82.5044V57.12C82.5044 58.784 83.0804 60.032 84.2644 60.896C85.2884 61.664 86.6644 62.048 88.3924 62.048C91.0484 62.048 92.8404 61.152 93.7684 59.36C94.0884 58.752 94.2484 58.016 94.2484 57.12V42.24H96.4884V56.8ZM104.327 56H112.231L108.295 45.984L104.327 56ZM117.831 64H115.399L113.063 58.08H103.495L101.159 64H98.7269L108.295 40.736L117.831 64ZM122.797 53.248H127.853C129.101 53.248 130.125 52.832 130.957 51.968C131.789 51.104 132.205 50.048 132.205 48.768C132.205 47.488 131.789 46.464 131.021 45.632C130.221 44.8 129.165 44.384 127.853 44.384H122.797V53.248ZM134.445 48.8C134.445 50.72 133.741 52.32 132.397 53.568C131.213 54.688 129.773 55.296 128.077 55.392L134.797 64H131.789L125.389 55.392H122.797V64H120.557V42.24H127.533C129.453 42.24 131.085 42.88 132.397 44.096C133.741 45.344 134.445 46.944 134.445 48.8ZM136.203 44.256V42.176H141.483H143.723H149.003V44.256H143.723V63.936H141.483V44.256H136.203ZM171.225 53.056C171.225 50.624 170.329 48.512 168.601 46.752C166.841 45.024 164.729 44.128 162.265 44.128C159.801 44.128 157.689 45.024 155.929 46.752C154.201 48.512 153.305 50.624 153.305 53.056C153.305 55.552 154.201 57.664 155.929 59.392C157.689 61.152 159.801 62.016 162.265 62.016C164.729 62.016 166.841 61.152 168.601 59.392C170.329 57.664 171.225 55.552 171.225 53.056ZM173.465 53.056C173.465 54.592 173.145 56.064 172.569 57.408C171.993 58.784 171.193 59.968 170.169 60.992C169.145 62.016 167.961 62.816 166.585 63.392C165.241 63.968 163.769 64.288 162.233 64.288C160.697 64.288 159.257 63.968 157.913 63.392C156.569 62.816 155.385 62.016 154.361 60.992C153.337 59.968 152.537 58.784 151.961 57.408C151.385 56.064 151.065 54.592 151.065 53.056C151.065 51.52 151.385 50.08 151.961 48.704C152.537 47.36 153.337 46.176 154.361 45.152C155.385 44.16 156.569 43.36 157.913 42.784C159.257 42.208 160.697 41.92 162.233 41.92C163.769 41.92 165.241 42.208 166.585 42.784C167.961 43.36 169.145 44.16 170.169 45.152C171.193 46.176 171.993 47.36 172.569 48.704C173.145 50.08 173.465 51.52 173.465 53.056Z" fill="#625C5C"/>
<path d="M94.1524 62.368L93.8231 61.9917L93.8202 61.9943L94.1524 62.368ZM82.5684 62.368L82.9006 61.9943L82.8976 61.9917L82.5684 62.368ZM80.2644 42.24V41.74H79.7644V42.24H80.2644ZM82.5044 42.24H83.0044V41.74H82.5044V42.24ZM84.2644 60.896L84.5644 60.496L84.5591 60.4921L84.2644 60.896ZM93.7684 59.36L93.3259 59.1271L93.3244 59.1301L93.7684 59.36ZM94.2484 42.24V41.74H93.7484V42.24H94.2484ZM96.4884 42.24H96.9884V41.74H96.4884V42.24ZM95.9884 56.8C95.9884 59.0436 95.2365 60.755 93.8231 61.9917L94.4816 62.7443C96.1402 61.293 96.9884 59.2924 96.9884 56.8H95.9884ZM93.8202 61.9943C92.4926 63.1743 90.7012 63.788 88.3924 63.788V64.788C90.8836 64.788 92.9321 64.1217 94.4845 62.7417L93.8202 61.9943ZM88.3924 63.788C86.0486 63.788 84.2263 63.1728 82.9005 61.9943L82.2362 62.7417C83.7904 64.1232 85.8721 64.788 88.3924 64.788V63.788ZM82.8976 61.9917C81.488 60.7583 80.7644 59.0494 80.7644 56.8H79.7644C79.7644 59.2866 80.5768 61.2897 82.2391 62.7443L82.8976 61.9917ZM80.7644 56.8V42.24H79.7644V56.8H80.7644ZM80.2644 42.74H82.5044V41.74H80.2644V42.74ZM82.0044 42.24V57.12H83.0044V42.24H82.0044ZM82.0044 57.12C82.0044 58.9166 82.6362 60.3269 83.9696 61.2999L84.5591 60.4921C83.5245 59.7371 83.0044 58.6514 83.0044 57.12H82.0044ZM83.9644 61.296C85.1007 62.1483 86.5936 62.548 88.3924 62.548V61.548C86.7351 61.548 85.476 61.1797 84.5644 60.496L83.9644 61.296ZM88.3924 62.548C91.1662 62.548 93.1708 61.6013 94.2124 59.5899L93.3244 59.1301C92.5099 60.7027 90.9305 61.548 88.3924 61.548V62.548ZM94.2108 59.5929C94.5777 58.8957 94.7484 58.075 94.7484 57.12H93.7484C93.7484 57.957 93.599 58.6083 93.3259 59.1271L94.2108 59.5929ZM94.7484 57.12V42.24H93.7484V57.12H94.7484ZM94.2484 42.74H96.4884V41.74H94.2484V42.74ZM95.9884 42.24V56.8H96.9884V42.24H95.9884ZM104.327 56L103.862 55.8158L103.591 56.5H104.327V56ZM112.231 56V56.5H112.965L112.696 55.8171L112.231 56ZM108.295 45.984L108.76 45.8011L108.297 44.6217L107.83 45.7998L108.295 45.984ZM117.831 64V64.5H118.576L118.294 63.8104L117.831 64ZM115.399 64L114.934 64.1835L115.059 64.5H115.399V64ZM113.063 58.08L113.528 57.8965L113.403 57.58H113.063V58.08ZM103.495 58.08V57.58H103.155L103.03 57.8965L103.495 58.08ZM101.159 64V64.5H101.499L101.624 64.1835L101.159 64ZM98.7269 64L98.2644 63.8098L97.9806 64.5H98.7269V64ZM108.295 40.736L108.758 40.5464L108.296 39.4196L107.832 40.5458L108.295 40.736ZM104.327 56.5H112.231V55.5H104.327V56.5ZM112.696 55.8171L108.76 45.8011L107.83 46.1669L111.766 56.1829L112.696 55.8171ZM107.83 45.7998L103.862 55.8158L104.792 56.1842L108.76 46.1682L107.83 45.7998ZM117.831 63.5H115.399V64.5H117.831V63.5ZM115.864 63.8165L113.528 57.8965L112.598 58.2635L114.934 64.1835L115.864 63.8165ZM113.063 57.58H103.495V58.58H113.063V57.58ZM103.03 57.8965L100.694 63.8165L101.624 64.1835L103.96 58.2635L103.03 57.8965ZM101.159 63.5H98.7269V64.5H101.159V63.5ZM99.1893 64.1902L108.757 40.9262L107.832 40.5458L98.2644 63.8098L99.1893 64.1902ZM107.832 40.9256L117.368 64.1896L118.294 63.8104L108.758 40.5464L107.832 40.9256ZM122.797 53.248H122.297V53.748H122.797V53.248ZM130.957 51.968L130.597 51.6212L130.597 51.6212L130.957 51.968ZM131.021 45.632L131.388 45.2928L131.381 45.2854L131.021 45.632ZM122.797 44.384V43.884H122.297V44.384H122.797ZM132.397 53.568L132.057 53.2016L132.053 53.2048L132.397 53.568ZM128.077 55.392L128.049 54.8928L127.095 54.9468L127.683 55.6997L128.077 55.392ZM134.797 64V64.5H135.822L135.191 63.6923L134.797 64ZM131.789 64L131.388 64.2983L131.538 64.5H131.789V64ZM125.389 55.392L125.79 55.0937L125.64 54.892H125.389V55.392ZM122.797 55.392V54.892H122.297V55.392H122.797ZM122.797 64V64.5H123.297V64H122.797ZM120.557 64H120.057V64.5H120.557V64ZM120.557 42.24V41.74H120.057V42.24H120.557ZM132.397 44.096L132.737 43.7296L132.737 43.7293L132.397 44.096ZM122.797 53.748H127.853V52.748H122.797V53.748ZM127.853 53.748C129.228 53.748 130.385 53.283 131.317 52.3148L130.597 51.6212C129.865 52.381 128.974 52.748 127.853 52.748V53.748ZM131.317 52.3148C132.244 51.3523 132.705 50.1697 132.705 48.768H131.705C131.705 49.9263 131.334 50.8557 130.597 51.6212L131.317 52.3148ZM132.705 48.768C132.705 47.3663 132.244 46.2201 131.388 45.2929L130.653 45.9711C131.334 46.7079 131.705 47.6097 131.705 48.768H132.705ZM131.381 45.2854C130.474 44.3416 129.281 43.884 127.853 43.884V44.884C129.049 44.884 129.968 45.2584 130.66 45.9786L131.381 45.2854ZM127.853 43.884H122.797V44.884H127.853V43.884ZM122.297 44.384V53.248H123.297V44.384H122.297ZM133.945 48.8C133.945 50.5834 133.297 52.0498 132.057 53.2016L132.737 53.9344C134.185 52.5902 134.945 50.8566 134.945 48.8H133.945ZM132.053 53.2048C130.959 54.24 129.632 54.8032 128.049 54.8928L128.105 55.8912C129.914 55.7888 131.467 55.136 132.74 53.9312L132.053 53.2048ZM127.683 55.6997L134.403 64.3077L135.191 63.6923L128.471 55.0843L127.683 55.6997ZM134.797 63.5H131.789V64.5H134.797V63.5ZM132.19 63.7017L125.79 55.0937L124.988 55.6903L131.388 64.2983L132.19 63.7017ZM125.389 54.892H122.797V55.892H125.389V54.892ZM122.297 55.392V64H123.297V55.392H122.297ZM122.797 63.5H120.557V64.5H122.797V63.5ZM121.057 64V42.24H120.057V64H121.057ZM120.557 42.74H127.533V41.74H120.557V42.74ZM127.533 42.74C129.332 42.74 130.841 43.3357 132.057 44.4627L132.737 43.7293C131.329 42.4243 129.574 41.74 127.533 41.74V42.74ZM132.057 44.4624C133.299 45.616 133.945 47.0833 133.945 48.8H134.945C134.945 46.8047 134.183 45.072 132.737 43.7296L132.057 44.4624ZM136.203 44.256H135.703V44.756H136.203V44.256ZM136.203 42.176V41.676H135.703V42.176H136.203ZM149.003 42.176H149.503V41.676H149.003V42.176ZM149.003 44.256V44.756H149.503V44.256H149.003ZM143.723 44.256V43.756H143.223V44.256H143.723ZM143.723 63.936V64.436H144.223V63.936H143.723ZM141.483 63.936H140.983V64.436H141.483V63.936ZM141.483 44.256H141.983V43.756H141.483V44.256ZM136.703 44.256V42.176H135.703V44.256H136.703ZM136.203 42.676H141.483V41.676H136.203V42.676ZM141.483 42.676H143.723V41.676H141.483V42.676ZM143.723 42.676H149.003V41.676H143.723V42.676ZM148.503 42.176V44.256H149.503V42.176H148.503ZM149.003 43.756H143.723V44.756H149.003V43.756ZM143.223 44.256V63.936H144.223V44.256H143.223ZM143.723 63.436H141.483V64.436H143.723V63.436ZM141.983 63.936V44.256H140.983V63.936H141.983ZM141.483 43.756H136.203V44.756H141.483V43.756ZM168.601 46.752L168.958 46.4016L168.951 46.3952L168.601 46.752ZM155.929 46.752L155.579 46.3952L155.572 46.4017L155.929 46.752ZM168.601 59.392L168.247 59.0384L168.247 59.0384L168.601 59.392ZM172.569 57.408L172.109 57.211L172.108 57.2149L172.569 57.408ZM170.169 60.992L169.815 60.6384L169.815 60.6384L170.169 60.992ZM166.585 63.392L166.392 62.9308L166.388 62.9324L166.585 63.392ZM157.913 63.392L158.11 62.9324L158.11 62.9324L157.913 63.392ZM154.361 60.992L154.007 61.3456L154.007 61.3456L154.361 60.992ZM151.961 57.408L152.422 57.2149L152.42 57.211L151.961 57.408ZM151.961 48.704L151.501 48.507L151.5 48.5109L151.961 48.704ZM154.361 45.152L154.013 44.7928L154.007 44.7984L154.361 45.152ZM157.913 42.784L158.11 43.2436L158.11 43.2436L157.913 42.784ZM166.585 42.784L166.388 43.2436L166.392 43.2452L166.585 42.784ZM170.169 45.152L170.522 44.7984L170.517 44.7929L170.169 45.152ZM172.569 48.704L173.03 48.5109L173.028 48.507L172.569 48.704ZM171.725 53.056C171.725 50.4873 170.773 48.251 168.958 46.4017L168.244 47.1023C169.884 48.773 170.725 50.7607 170.725 53.056H171.725ZM168.951 46.3952C167.101 44.5788 164.865 43.628 162.265 43.628V44.628C164.593 44.628 166.581 45.4692 168.251 47.1088L168.951 46.3952ZM162.265 43.628C159.665 43.628 157.429 44.5788 155.579 46.3952L156.279 47.1088C157.949 45.4692 159.937 44.628 162.265 44.628V43.628ZM155.572 46.4017C153.756 48.251 152.805 50.4873 152.805 53.056H153.805C153.805 50.7607 154.645 48.773 156.286 47.1023L155.572 46.4017ZM152.805 53.056C152.805 55.6861 153.755 57.9249 155.575 59.7456L156.282 59.0384C154.647 57.4031 153.805 55.4179 153.805 53.056H152.805ZM155.575 59.7456C157.43 61.5999 159.669 62.516 162.265 62.516V61.516C159.933 61.516 157.948 60.7041 156.282 59.0384L155.575 59.7456ZM162.265 62.516C164.861 62.516 167.1 61.5999 168.954 59.7456L168.247 59.0384C166.582 60.7041 164.597 61.516 162.265 61.516V62.516ZM168.954 59.7456C170.775 57.9249 171.725 55.6861 171.725 53.056H170.725C170.725 55.4179 169.883 57.4031 168.247 59.0384L168.954 59.7456ZM172.965 53.056C172.965 54.522 172.66 55.9271 172.109 57.211L173.028 57.605C173.63 56.2009 173.965 54.662 173.965 53.056H172.965ZM172.108 57.2149C171.557 58.5308 170.793 59.6603 169.815 60.6384L170.522 61.3456C171.592 60.2757 172.429 59.0372 173.03 57.6011L172.108 57.2149ZM169.815 60.6384C168.837 61.6165 167.708 62.3799 166.392 62.9308L166.778 63.8532C168.214 63.2521 169.453 62.4155 170.522 61.3456L169.815 60.6384ZM166.388 62.9324C165.104 63.4827 163.699 63.788 162.233 63.788V64.788C163.839 64.788 165.378 64.4533 166.782 63.8516L166.388 62.9324ZM162.233 63.788C160.768 63.788 159.395 63.4833 158.11 62.9324L157.716 63.8516C159.119 64.4527 160.625 64.788 162.233 64.788V63.788ZM158.11 62.9324C156.824 62.3812 155.693 61.617 154.714 60.6384L154.007 61.3456C155.077 62.415 156.314 63.2508 157.716 63.8516L158.11 62.9324ZM154.714 60.6384C153.736 59.6603 152.973 58.5308 152.422 57.2149L151.5 57.6011C152.101 59.0372 152.937 60.2757 154.007 61.3456L154.714 60.6384ZM152.42 57.211C151.87 55.9271 151.565 54.522 151.565 53.056H150.565C150.565 54.662 150.9 56.2009 151.501 57.605L152.42 57.211ZM151.565 53.056C151.565 51.5921 151.869 50.2175 152.422 48.8971L151.5 48.5109C150.9 49.9425 150.565 51.4479 150.565 53.056H151.565ZM152.42 48.901C152.972 47.6148 153.736 46.4841 154.714 45.5056L154.007 44.7984C152.938 45.8679 152.102 47.1052 151.501 48.507L152.42 48.901ZM154.709 45.5111C155.69 44.5604 156.823 43.7949 158.11 43.2436L157.716 42.3244C156.314 42.9251 155.08 43.7596 154.013 44.7929L154.709 45.5111ZM158.11 43.2436C159.388 42.6956 160.761 42.42 162.233 42.42V41.42C160.633 41.42 159.125 41.7204 157.716 42.3244L158.11 43.2436ZM162.233 42.42C163.706 42.42 165.111 42.6961 166.388 43.2436L166.782 42.3244C165.371 41.7199 163.832 41.42 162.233 41.42V42.42ZM166.392 43.2452C167.708 43.7962 168.84 44.5609 169.821 45.5111L170.517 44.7929C169.45 43.7591 168.214 42.9238 166.778 42.3228L166.392 43.2452ZM169.815 45.5056C170.794 46.4841 171.558 47.6148 172.109 48.901L173.028 48.507C172.428 47.1052 171.592 45.8679 170.522 44.7984L169.815 45.5056ZM172.108 48.8971C172.66 50.2175 172.965 51.5921 172.965 53.056H173.965C173.965 51.4479 173.629 49.9425 173.03 48.5109L172.108 48.8971Z" fill="#635C5C"/>
</svg>
