<svg width="197" height="77" viewBox="0 0 197 77" fill="none" xmlns="http://www.w3.org/2000/svg">
<path fill-rule="evenodd" clip-rule="evenodd" d="M37.9632 14.7238L60.3584 25.6271V47.717L46.9603 53.9227L62.6222 61.37L76 54.881V18.3589L37.9962 0" fill="#E3D2C6"/>
<path fill-rule="evenodd" clip-rule="evenodd" d="M38.0393 14.7238L15.6442 25.6271V47.717L29.0422 53.9227L13.3778 61.37L0 54.881V18.3589L38.0063 0" fill="#E3D2C6"/>
<path fill-rule="evenodd" clip-rule="evenodd" d="M22.5499 65.7385L38.0217 58.7141L61.0506 69.6632L45.7233 77.0001L22.5499 65.7385Z" fill="#F39DAA"/>
<path d="M103.144 53.8C103.144 56.168 102.344 58.024 100.808 59.368C99.368 60.648 97.448 61.288 95.048 61.288C92.616 61.288 90.664 60.648 89.224 59.368C87.688 58.024 86.92 56.168 86.92 53.8V39.24H89.16V54.12C89.16 55.784 89.736 57.032 90.92 57.896C91.944 58.664 93.32 59.048 95.048 59.048C97.704 59.048 99.496 58.152 100.424 56.36C100.744 55.752 100.904 55.016 100.904 54.12V39.24H103.144V53.8ZM110.983 53H118.887L114.951 42.984L110.983 53ZM124.487 61H122.055L119.719 55.08H110.151L107.815 61H105.383L114.951 37.736L124.487 61ZM129.453 50.248H134.509C135.757 50.248 136.781 49.832 137.613 48.968C138.445 48.104 138.861 47.048 138.861 45.768C138.861 44.488 138.445 43.464 137.677 42.632C136.877 41.8 135.821 41.384 134.509 41.384H129.453V50.248ZM141.101 45.8C141.101 47.72 140.397 49.32 139.053 50.568C137.869 51.688 136.429 52.296 134.733 52.392L141.453 61H138.445L132.045 52.392H129.453V61H127.213V39.24H134.189C136.109 39.24 137.741 39.88 139.053 41.096C140.397 42.344 141.101 43.944 141.101 45.8ZM142.859 41.256V39.176H148.139H150.379H155.659V41.256H150.379V60.936H148.139V41.256H142.859ZM177.881 50.056C177.881 47.624 176.985 45.512 175.257 43.752C173.497 42.024 171.385 41.128 168.921 41.128C166.457 41.128 164.345 42.024 162.585 43.752C160.857 45.512 159.961 47.624 159.961 50.056C159.961 52.552 160.857 54.664 162.585 56.392C164.345 58.152 166.457 59.016 168.921 59.016C171.385 59.016 173.497 58.152 175.257 56.392C176.985 54.664 177.881 52.552 177.881 50.056ZM180.121 50.056C180.121 51.592 179.801 53.064 179.225 54.408C178.649 55.784 177.849 56.968 176.825 57.992C175.801 59.016 174.617 59.816 173.241 60.392C171.897 60.968 170.425 61.288 168.889 61.288C167.353 61.288 165.913 60.968 164.569 60.392C163.225 59.816 162.041 59.016 161.016 57.992C159.993 56.968 159.193 55.784 158.617 54.408C158.041 53.064 157.721 51.592 157.721 50.056C157.721 48.52 158.041 47.08 158.617 45.704C159.193 44.36 159.993 43.176 161.016 42.152C162.041 41.16 163.225 40.36 164.569 39.784C165.913 39.208 167.353 38.92 168.889 38.92C170.425 38.92 171.897 39.208 173.241 39.784C174.617 40.36 175.801 41.16 176.825 42.152C177.849 43.176 178.649 44.36 179.225 45.704C179.801 47.08 180.121 48.52 180.121 50.056Z" fill="#625C5C"/>
<path d="M100.808 59.368L100.479 58.9917L100.476 58.9943L100.808 59.368ZM89.224 59.368L89.5562 58.9943L89.5533 58.9917L89.224 59.368ZM86.92 39.24V38.74H86.42V39.24H86.92ZM89.16 39.24H89.66V38.74H89.16V39.24ZM90.92 57.896L91.22 57.496L91.2147 57.4921L90.92 57.896ZM100.424 56.36L99.9815 56.1271L99.98 56.1301L100.424 56.36ZM100.904 39.24V38.74H100.404V39.24H100.904ZM103.144 39.24H103.644V38.74H103.144V39.24ZM102.644 53.8C102.644 56.0436 101.892 57.755 100.479 58.9917L101.137 59.7443C102.796 58.293 103.644 56.2924 103.644 53.8H102.644ZM100.476 58.9943C99.1483 60.1743 97.3568 60.788 95.048 60.788V61.788C97.5392 61.788 99.5877 61.1217 101.14 59.7417L100.476 58.9943ZM95.048 60.788C92.7043 60.788 90.882 60.1728 89.5562 58.9943L88.8918 59.7417C90.446 61.1232 92.5277 61.788 95.048 61.788V60.788ZM89.5533 58.9917C88.1436 57.7583 87.42 56.0494 87.42 53.8H86.42C86.42 56.2866 87.2324 58.2897 88.8947 59.7443L89.5533 58.9917ZM87.42 53.8V39.24H86.42V53.8H87.42ZM86.92 39.74H89.16V38.74H86.92V39.74ZM88.66 39.24V54.12H89.66V39.24H88.66ZM88.66 54.12C88.66 55.9166 89.2919 57.3269 90.6253 58.2999L91.2147 57.4921C90.1801 56.7371 89.66 55.6514 89.66 54.12H88.66ZM90.62 58.296C91.7563 59.1483 93.2493 59.548 95.048 59.548V58.548C93.3907 58.548 92.1317 58.1797 91.22 57.496L90.62 58.296ZM95.048 59.548C97.8219 59.548 99.8264 58.6013 100.868 56.5899L99.98 56.1301C99.1656 57.7027 97.5861 58.548 95.048 58.548V59.548ZM100.866 56.5929C101.233 55.8957 101.404 55.075 101.404 54.12H100.404C100.404 54.957 100.255 55.6083 99.9815 56.1271L100.866 56.5929ZM101.404 54.12V39.24H100.404V54.12H101.404ZM100.904 39.74H103.144V38.74H100.904V39.74ZM102.644 39.24V53.8H103.644V39.24H102.644ZM110.983 53L110.518 52.8158L110.247 53.5H110.983V53ZM118.887 53V53.5H119.62L119.352 52.8171L118.887 53ZM114.951 42.984L115.416 42.8011L114.952 41.6217L114.486 42.7998L114.951 42.984ZM124.487 61V61.5H125.232L124.949 60.8104L124.487 61ZM122.055 61L121.589 61.1835L121.714 61.5H122.055V61ZM119.719 55.08L120.184 54.8965L120.059 54.58H119.719V55.08ZM110.151 55.08V54.58H109.81L109.685 54.8965L110.151 55.08ZM107.815 61V61.5H108.155L108.28 61.1835L107.815 61ZM105.382 61L104.92 60.8098L104.636 61.5H105.382V61ZM114.951 37.736L115.413 37.5464L114.951 36.4196L114.488 37.5458L114.951 37.736ZM110.983 53.5H118.887V52.5H110.983V53.5ZM119.352 52.8171L115.416 42.8011L114.485 43.1669L118.421 53.1829L119.352 52.8171ZM114.486 42.7998L110.518 52.8158L111.447 53.1842L115.415 43.1682L114.486 42.7998ZM124.487 60.5H122.055V61.5H124.487V60.5ZM122.52 60.8165L120.184 54.8965L119.253 55.2635L121.589 61.1835L122.52 60.8165ZM119.719 54.58H110.151V55.58H119.719V54.58ZM109.685 54.8965L107.349 60.8165L108.28 61.1835L110.616 55.2635L109.685 54.8965ZM107.815 60.5H105.382V61.5H107.815V60.5ZM105.845 61.1902L115.413 37.9262L114.488 37.5458L104.92 60.8098L105.845 61.1902ZM114.488 37.9256L124.024 61.1896L124.949 60.8104L115.413 37.5464L114.488 37.9256ZM129.452 50.248H128.952V50.748H129.452V50.248ZM137.612 48.968L137.252 48.6212V48.6212L137.612 48.968ZM137.676 42.632L138.044 42.2928L138.037 42.2854L137.676 42.632ZM129.452 41.384V40.884H128.952V41.384H129.452ZM139.053 50.568L138.712 50.2016L138.709 50.2048L139.053 50.568ZM134.732 52.392L134.704 51.8928L133.751 51.9468L134.338 52.6997L134.732 52.392ZM141.452 61V61.5H142.477L141.847 60.6923L141.452 61ZM138.444 61L138.043 61.2983L138.193 61.5H138.444V61ZM132.045 52.392L132.446 52.0937L132.296 51.892H132.045V52.392ZM129.452 52.392V51.892H128.952V52.392H129.452ZM129.452 61V61.5H129.952V61H129.452ZM127.213 61H126.713V61.5H127.213V61ZM127.213 39.24V38.74H126.713V39.24H127.213ZM139.053 41.096L139.393 40.7296L139.392 40.7293L139.053 41.096ZM129.452 50.748H134.508V49.748H129.452V50.748ZM134.508 50.748C135.883 50.748 137.04 50.283 137.973 49.3148L137.252 48.6212C136.521 49.381 135.63 49.748 134.508 49.748V50.748ZM137.973 49.3148C138.9 48.3523 139.361 47.1697 139.361 45.768H138.361C138.361 46.9263 137.989 47.8557 137.252 48.6212L137.973 49.3148ZM139.361 45.768C139.361 44.3663 138.9 43.2201 138.044 42.2929L137.309 42.9711C137.989 43.7079 138.361 44.6097 138.361 45.768H139.361ZM138.037 42.2854C137.129 41.3416 135.936 40.884 134.508 40.884V41.884C135.705 41.884 136.624 42.2584 137.316 42.9786L138.037 42.2854ZM134.508 40.884H129.452V41.884H134.508V40.884ZM128.952 41.384V50.248H129.952V41.384H128.952ZM140.601 45.8C140.601 47.5834 139.953 49.0498 138.712 50.2016L139.393 50.9344C140.84 49.5902 141.601 47.8566 141.601 45.8H140.601ZM138.709 50.2048C137.615 51.24 136.288 51.8032 134.704 51.8928L134.761 52.8912C136.569 52.7888 138.122 52.136 139.396 50.9312L138.709 50.2048ZM134.338 52.6997L141.058 61.3077L141.847 60.6923L135.127 52.0843L134.338 52.6997ZM141.452 60.5H138.444V61.5H141.452V60.5ZM138.846 60.7017L132.446 52.0937L131.643 52.6903L138.043 61.2983L138.846 60.7017ZM132.045 51.892H129.452V52.892H132.045V51.892ZM128.952 52.392V61H129.952V52.392H128.952ZM129.452 60.5H127.213V61.5H129.452V60.5ZM127.713 61V39.24H126.713V61H127.713ZM127.213 39.74H134.188V38.74H127.213V39.74ZM134.188 39.74C135.987 39.74 137.497 40.3357 138.713 41.4627L139.392 40.7293C137.984 39.4243 136.23 38.74 134.188 38.74V39.74ZM138.712 41.4624C139.955 42.616 140.601 44.0833 140.601 45.8H141.601C141.601 43.8047 140.838 42.072 139.393 40.7296L138.712 41.4624ZM142.859 41.256H142.359V41.756H142.859V41.256ZM142.859 39.176V38.676H142.359V39.176H142.859ZM155.659 39.176H156.159V38.676H155.659V39.176ZM155.659 41.256V41.756H156.159V41.256H155.659ZM150.379 41.256V40.756H149.879V41.256H150.379ZM150.379 60.936V61.436H150.879V60.936H150.379ZM148.139 60.936H147.639V61.436H148.139V60.936ZM148.139 41.256H148.639V40.756H148.139V41.256ZM143.359 41.256V39.176H142.359V41.256H143.359ZM142.859 39.676H148.139V38.676H142.859V39.676ZM148.139 39.676H150.379V38.676H148.139V39.676ZM150.379 39.676H155.659V38.676H150.379V39.676ZM155.159 39.176V41.256H156.159V39.176H155.159ZM155.659 40.756H150.379V41.756H155.659V40.756ZM149.879 41.256V60.936H150.879V41.256H149.879ZM150.379 60.436H148.139V61.436H150.379V60.436ZM148.639 60.936V41.256H147.639V60.936H148.639ZM148.139 40.756H142.859V41.756H148.139V40.756ZM175.257 43.752L175.613 43.4016L175.607 43.3952L175.257 43.752ZM162.585 43.752L162.234 43.3952L162.228 43.4017L162.585 43.752ZM175.257 56.392L174.903 56.0384L175.257 56.392ZM179.225 54.408L178.765 54.211L178.763 54.2149L179.225 54.408ZM176.825 57.992L176.471 57.6384L176.825 57.992ZM173.241 60.392L173.047 59.9308L173.044 59.9324L173.241 60.392ZM164.568 60.392L164.765 59.9324L164.568 60.392ZM161.017 57.992L160.663 58.3456L161.017 57.992ZM158.617 54.408L159.078 54.2149L159.076 54.211L158.617 54.408ZM158.617 45.704L158.157 45.507L158.155 45.5109L158.617 45.704ZM161.017 42.152L160.669 41.7928L160.663 41.7984L161.017 42.152ZM164.568 39.784L164.765 40.2436L164.568 39.784ZM173.241 39.784L173.044 40.2436L173.047 40.2452L173.241 39.784ZM176.825 42.152L177.178 41.7984L177.172 41.7929L176.825 42.152ZM179.225 45.704L179.686 45.5109L179.684 45.507L179.225 45.704ZM178.381 50.056C178.381 47.4873 177.429 45.251 175.613 43.4017L174.9 44.1023C176.54 45.773 177.381 47.7607 177.381 50.056H178.381ZM175.607 43.3952C173.757 41.5788 171.52 40.628 168.921 40.628V41.628C171.249 41.628 173.236 42.4692 174.906 44.1088L175.607 43.3952ZM168.921 40.628C166.321 40.628 164.084 41.5788 162.234 43.3952L162.935 44.1088C164.605 42.4692 166.592 41.628 168.921 41.628V40.628ZM162.228 43.4017C160.412 45.251 159.461 47.4873 159.461 50.056H160.461C160.461 47.7607 161.301 45.773 162.941 44.1023L162.228 43.4017ZM159.461 50.056C159.461 52.6861 160.41 54.9249 162.231 56.7456L162.938 56.0384C161.303 54.4031 160.461 52.4179 160.461 50.056H159.461ZM162.231 56.7456C164.085 58.5999 166.325 59.516 168.921 59.516V58.516C166.588 58.516 164.604 57.7041 162.938 56.0384L162.231 56.7456ZM168.921 59.516C171.516 59.516 173.756 58.5999 175.61 56.7456L174.903 56.0384C173.237 57.7041 171.253 58.516 168.921 58.516V59.516ZM175.61 56.7456C177.431 54.9249 178.381 52.6861 178.381 50.056H177.381C177.381 52.4179 176.538 54.4031 174.903 56.0384L175.61 56.7456ZM179.62 50.056C179.62 51.522 179.315 52.9271 178.765 54.211L179.684 54.605C180.286 53.2009 180.62 51.662 180.62 50.056H179.62ZM178.763 54.2149C178.212 55.5308 177.449 56.6603 176.471 57.6384L177.178 58.3456C178.248 57.2757 179.085 56.0372 179.686 54.6011L178.763 54.2149ZM176.471 57.6384C175.493 58.6165 174.363 59.3799 173.047 59.9308L173.434 60.8532C174.87 60.2521 176.108 59.4155 177.178 58.3456L176.471 57.6384ZM173.044 59.9324C171.76 60.4827 170.354 60.788 168.889 60.788V61.788C170.494 61.788 172.033 61.4533 173.437 60.8516L173.044 59.9324ZM168.889 60.788C167.424 60.788 166.051 60.4833 164.765 59.9324L164.372 60.8516C165.774 61.4527 167.281 61.788 168.889 61.788V60.788ZM164.765 59.9324C163.479 59.3812 162.349 58.617 161.37 57.6384L160.663 58.3456C161.732 59.415 162.97 60.2508 164.372 60.8516L164.765 59.9324ZM161.37 57.6384C160.392 56.6603 159.629 55.5308 159.078 54.2149L158.155 54.6011C158.756 56.0372 159.593 57.2757 160.663 58.3456L161.37 57.6384ZM159.076 54.211C158.526 52.9271 158.22 51.522 158.22 50.056H157.22C157.22 51.662 157.555 53.2009 158.157 54.605L159.076 54.211ZM158.22 50.056C158.22 48.5921 158.525 47.2175 159.078 45.8971L158.155 45.5109C157.556 46.9425 157.22 48.4479 157.22 50.056H158.22ZM159.076 45.901C159.627 44.6148 160.391 43.4841 161.37 42.5056L160.663 41.7984C159.594 42.8679 158.758 44.1052 158.157 45.507L159.076 45.901ZM161.364 42.5111C162.346 41.5604 163.479 40.7949 164.765 40.2436L164.372 39.3244C162.97 39.9251 161.735 40.7596 160.669 41.7929L161.364 42.5111ZM164.765 40.2436C166.044 39.6956 167.417 39.42 168.889 39.42V38.42C167.288 38.42 165.781 38.7204 164.372 39.3244L164.765 40.2436ZM168.889 39.42C170.362 39.42 171.766 39.6961 173.044 40.2436L173.437 39.3244C172.027 38.7199 170.487 38.42 168.889 38.42V39.42ZM173.047 40.2452C174.364 40.7962 175.496 41.5609 176.477 42.5111L177.172 41.7929C176.105 40.7591 174.869 39.9238 173.434 39.3228L173.047 40.2452ZM176.471 42.5056C177.45 43.4841 178.214 44.6148 178.765 45.901L179.684 45.507C179.083 44.1052 178.247 42.8679 177.178 41.7984L176.471 42.5056ZM178.763 45.8971C179.316 47.2175 179.62 48.5921 179.62 50.056H180.62C180.62 48.4479 180.285 46.9425 179.686 45.5109L178.763 45.8971Z" fill="#635C5C"/>
</svg>
